<svg xmlns="http://www.w3.org/2000/svg" xmlns:xlink="http://www.w3.org/1999/xlink" width="40" zoomAndPan="magnify" viewBox="0 0 30 30.000001" height="40" preserveAspectRatio="xMidYMid meet" version="1.0"><defs><clipPath id="1a9f264108"><path d="M 0.484375 0 L 29.515625 0 L 29.515625 29.03125 L 0.484375 29.03125 Z M 0.484375 0 " clip-rule="nonzero"/></clipPath><clipPath id="f8b95c2da6"><path d="M 0.484375 0 L 29.515625 0 L 29.515625 29.03125 L 0.484375 29.03125 Z M 0.484375 0 " clip-rule="nonzero"/></clipPath><clipPath id="943067c78d"><path d="M 15 0 C 6.984375 0 0.484375 6.5 0.484375 14.515625 C 0.484375 22.53125 6.984375 29.03125 15 29.03125 C 23.015625 29.03125 29.515625 22.53125 29.515625 14.515625 C 29.515625 6.5 23.015625 0 15 0 Z M 15 0 " clip-rule="nonzero"/></clipPath><clipPath id="b0d22ce101"><path d="M 0.484375 0 L 29.515625 0 L 29.515625 29.03125 L 0.484375 29.03125 Z M 0.484375 0 " clip-rule="nonzero"/></clipPath><clipPath id="7d9f63a7f9"><path d="M 15 0 C 6.984375 0 0.484375 6.5 0.484375 14.515625 C 0.484375 22.53125 6.984375 29.03125 15 29.03125 C 23.015625 29.03125 29.515625 22.53125 29.515625 14.515625 C 29.515625 6.5 23.015625 0 15 0 Z M 15 0 " clip-rule="nonzero"/></clipPath><clipPath id="a2007c95c6"><rect x="0" width="30" y="0" height="30"/></clipPath><clipPath id="740033cc2f"><path d="M 14 5.5625 L 18 5.5625 L 18 9 L 14 9 Z M 14 5.5625 " clip-rule="nonzero"/></clipPath><clipPath id="9ffc825bd9"><path d="M 9.675781 8 L 20.5625 8 L 20.5625 23.707031 L 9.675781 23.707031 Z M 9.675781 8 " clip-rule="nonzero"/></clipPath><clipPath id="f530ad42c3"><path d="M 18.066406 10.640625 L 19.882812 10.640625 L 19.882812 14 L 18.066406 14 Z M 18.066406 10.640625 " clip-rule="nonzero"/></clipPath><clipPath id="684b528887"><path d="M 18.066406 11 L 19.882812 11 L 19.882812 12 L 18.066406 12 Z M 18.066406 11 " clip-rule="nonzero"/></clipPath><clipPath id="a5d4e71bc4"><path d="M 18.066406 11 L 19.882812 11 L 19.882812 14.269531 L 18.066406 14.269531 Z M 18.066406 11 " clip-rule="nonzero"/></clipPath><clipPath id="ee8f67a014"><path d="M 18.066406 11 L 19.882812 11 L 19.882812 12 L 18.066406 12 Z M 18.066406 11 " clip-rule="nonzero"/></clipPath><clipPath id="21f6c74f27"><path d="M 18.066406 11 L 19.882812 11 L 19.882812 13 L 18.066406 13 Z M 18.066406 11 " clip-rule="nonzero"/></clipPath><clipPath id="5dd18c8789"><rect x="0" width="30" y="0" height="30"/></clipPath></defs><g clip-path="url(#1a9f264108)"><g transform="matrix(1, 0, 0, 1, 0, 0.000000000000005692)"><g clip-path="url(#5dd18c8789)"><g clip-path="url(#f8b95c2da6)"><g clip-path="url(#943067c78d)"><g transform="matrix(1, 0, 0, 1, 0, 0.000000000000005692)"><g clip-path="url(#a2007c95c6)"><g clip-path="url(#b0d22ce101)"><g clip-path="url(#7d9f63a7f9)"><path fill="#00505f" d="M 0.484375 0 L 29.515625 0 L 29.515625 29.03125 L 0.484375 29.03125 Z M 0.484375 0 " fill-opacity="1" fill-rule="nonzero"/></g></g></g></g></g></g><g clip-path="url(#740033cc2f)"><path fill="#ffffff" d="M 15.535156 8.566406 C 16.351562 8.632812 17.058594 8.027344 17.125 7.214844 C 17.1875 6.398438 16.582031 5.691406 15.765625 5.625 C 14.957031 5.5625 14.242188 6.171875 14.183594 6.984375 C 14.113281 7.792969 14.722656 8.503906 15.535156 8.566406 " fill-opacity="1" fill-rule="nonzero"/></g><g clip-path="url(#9ffc825bd9)"><path fill="#ffffff" d="M 14.285156 9.171875 C 14.574219 8.96875 14.929688 8.835938 15.320312 8.867188 C 15.828125 8.910156 16.242188 9.222656 16.496094 9.605469 L 17.984375 12.554688 L 20.015625 13.957031 C 20.1875 14.085938 20.296875 14.304688 20.273438 14.539062 C 20.246094 14.902344 19.925781 15.175781 19.5625 15.144531 C 19.449219 15.140625 19.355469 15.09375 19.257812 15.046875 L 17.039062 13.523438 C 16.972656 13.46875 16.917969 13.398438 16.871094 13.328125 L 16.316406 12.21875 L 15.644531 15.164062 L 18.265625 18.253906 C 18.324219 18.351562 18.363281 18.460938 18.386719 18.574219 L 19.09375 22.308594 C 19.089844 22.390625 19.101562 22.441406 19.09375 22.507812 C 19.054688 23.066406 18.570312 23.46875 18.023438 23.429688 C 17.566406 23.390625 17.230469 23.054688 17.125 22.636719 L 16.457031 19.140625 L 14.328125 16.8125 L 13.835938 19.078125 C 13.820312 19.1875 13.675781 19.410156 13.636719 19.5 L 11.59375 22.941406 C 11.394531 23.253906 11.050781 23.457031 10.664062 23.425781 C 10.109375 23.386719 9.699219 22.902344 9.742188 22.351562 C 9.753906 22.195312 9.820312 22.03125 9.878906 21.917969 L 11.773438 18.738281 L 13.359375 11.726562 L 12.324219 12.5625 L 11.773438 15.058594 C 11.699219 15.382812 11.410156 15.644531 11.066406 15.617188 C 10.699219 15.589844 10.425781 15.269531 10.457031 14.898438 C 10.457031 14.871094 10.460938 14.839844 10.46875 14.804688 L 11.117188 11.894531 C 11.15625 11.773438 11.222656 11.660156 11.320312 11.574219 Z M 14.285156 9.171875 " fill-opacity="1" fill-rule="nonzero"/></g><g clip-path="url(#f530ad42c3)"><path fill="#ffffff" d="M 19.59375 13.011719 L 19.375 13.09375 L 18.640625 11.082031 L 18.066406 10.855469 L 18.152344 10.640625 L 18.773438 10.886719 C 18.804688 10.898438 18.828125 10.921875 18.839844 10.953125 Z M 19.59375 13.011719 " fill-opacity="1" fill-rule="evenodd"/></g><g clip-path="url(#684b528887)"><path fill="#ffffff" d="M 20.136719 11.597656 C 20.175781 11.597656 20.210938 11.628906 20.210938 11.671875 C 20.210938 11.695312 20.210938 11.722656 20.210938 11.75 C 20.210938 11.789062 20.175781 11.824219 20.136719 11.824219 C 19.847656 11.824219 18.773438 11.824219 18.484375 11.824219 C 18.441406 11.824219 18.410156 11.789062 18.410156 11.75 C 18.410156 11.722656 18.410156 11.695312 18.410156 11.671875 C 18.410156 11.628906 18.441406 11.597656 18.484375 11.597656 C 18.773438 11.597656 19.847656 11.597656 20.136719 11.597656 Z M 20.136719 11.597656 " fill-opacity="1" fill-rule="evenodd"/></g><g clip-path="url(#a5d4e71bc4)"><path fill="#ffffff" d="M 20.234375 11.824219 C 20.234375 11.824219 20.082031 13.714844 20.050781 14.121094 C 20.046875 14.164062 20.011719 14.195312 19.96875 14.195312 C 19.714844 14.195312 18.902344 14.195312 18.652344 14.195312 C 18.609375 14.195312 18.570312 14.164062 18.570312 14.121094 C 18.535156 13.71875 18.371094 11.824219 18.371094 11.824219 Z M 20.234375 11.824219 " fill-opacity="1" fill-rule="evenodd"/></g><g clip-path="url(#ee8f67a014)"><path fill="#ffffff" d="M 20.238281 11.710938 C 20.285156 11.710938 20.320312 11.746094 20.320312 11.792969 C 20.320312 11.820312 20.320312 11.851562 20.320312 11.882812 C 20.320312 11.925781 20.285156 11.964844 20.238281 11.964844 C 19.910156 11.964844 18.707031 11.964844 18.382812 11.964844 C 18.335938 11.964844 18.300781 11.925781 18.300781 11.882812 C 18.300781 11.851562 18.300781 11.820312 18.300781 11.792969 C 18.300781 11.746094 18.335938 11.710938 18.382812 11.710938 C 18.707031 11.710938 19.910156 11.710938 20.238281 11.710938 Z M 20.238281 11.710938 " fill-opacity="1" fill-rule="evenodd"/></g><g clip-path="url(#21f6c74f27)"><path fill="#ffffff" d="M 18.390625 12.046875 L 18.382812 11.964844 L 20.222656 11.964844 L 20.214844 12.046875 Z M 18.390625 12.046875 " fill-opacity="1" fill-rule="evenodd"/></g></g></g></g></svg>
